<?xml version="1.0" encoding="UTF-8" standalone="no"?>
<svg
   xmlns:dc="http://purl.org/dc/elements/1.1/"
   xmlns:cc="http://creativecommons.org/ns#"
   xmlns:rdf="http://www.w3.org/1999/02/22-rdf-syntax-ns#"
   xmlns:svg="http://www.w3.org/2000/svg"
   xmlns="http://www.w3.org/2000/svg"
   xmlns:xlink="http://www.w3.org/1999/xlink"
   xmlns:sodipodi="http://sodipodi.sourceforge.net/DTD/sodipodi-0.dtd"
   xmlns:inkscape="http://www.inkscape.org/namespaces/inkscape"
   version="1.0"
   viewBox="0 0 2672 1520.0001"
   id="svg216"
   sodipodi:docname="backround.svg"
   inkscape:export-filename="/home/rihl/go/src/github.com/setnicka/jksp2018-secret-services/static/cia/background.png"
   inkscape:export-xdpi="68.968414"
   inkscape:export-ydpi="68.968414"
   width="2672"
   height="1520.0001"
   inkscape:version="0.92.2 5c3e80d, 2017-08-06">
  <metadata
     id="metadata222">
    <rdf:RDF>
      <cc:Work
         rdf:about="">
        <dc:format>image/svg+xml</dc:format>
        <dc:type
           rdf:resource="http://purl.org/dc/dcmitype/StillImage" />
        <dc:title></dc:title>
      </cc:Work>
    </rdf:RDF>
  </metadata>
  <defs
     id="defs220">
    <filter
       inkscape:label="Button"
       inkscape:menu="Bevels"
       inkscape:menu-tooltip="Soft bevel, slightly depressed middle"
       style="color-interpolation-filters:sRGB"
       id="filter1382">
      <feGaussianBlur
         stdDeviation="2.3"
         in="SourceAlpha"
         result="result0"
         id="feGaussianBlur1356" />
      <feMorphology
         in="SourceAlpha"
         radius="6.6"
         result="result1"
         id="feMorphology1358" />
      <feGaussianBlur
         stdDeviation="8.9"
         in="result1"
         id="feGaussianBlur1360" />
      <feColorMatrix
         values="1 0 0 0 0 0 1 0 0 0 0 0 1 0 0 0 0 0 0.3 0"
         result="result91"
         id="feColorMatrix1362" />
      <feComposite
         in="result0"
         operator="out"
         result="result2"
         in2="result91"
         id="feComposite1364" />
      <feGaussianBlur
         stdDeviation="1.7"
         result="result4"
         id="feGaussianBlur1366" />
      <feDiffuseLighting
         surfaceScale="10"
         id="feDiffuseLighting1370">
        <feDistantLight
           azimuth="225"
           elevation="45"
           id="feDistantLight1368" />
      </feDiffuseLighting>
      <feBlend
         in2="SourceGraphic"
         mode="multiply"
         id="feBlend1372" />
      <feComposite
         in2="SourceAlpha"
         operator="in"
         result="result3"
         id="feComposite1374" />
      <feSpecularLighting
         in="result4"
         surfaceScale="5"
         specularExponent="17.89999962"
         id="feSpecularLighting1378">
        <feDistantLight
           azimuth="225"
           elevation="45"
           id="feDistantLight1376" />
      </feSpecularLighting>
      <feComposite
         in2="result3"
         operator="atop"
         id="feComposite1380" />
    </filter>
    <filter
       inkscape:label="Combined Lighting"
       inkscape:menu="Bevels"
       inkscape:menu-tooltip="Basic specular bevel to use for building textures"
       style="color-interpolation-filters:sRGB"
       id="filter2530">
      <feGaussianBlur
         stdDeviation="6"
         in="SourceGraphic"
         result="result0"
         id="feGaussianBlur2512" />
      <feDiffuseLighting
         lighting-color="#ffffff"
         diffuseConstant="1"
         surfaceScale="4"
         result="result5"
         id="feDiffuseLighting2516">
        <feDistantLight
           elevation="45"
           azimuth="235"
           id="feDistantLight2514" />
      </feDiffuseLighting>
      <feComposite
         k1="1.4"
         in2="SourceGraphic"
         in="result5"
         result="fbSourceGraphic"
         operator="arithmetic"
         id="feComposite2518"
         k2="0"
         k3="0"
         k4="0" />
      <feGaussianBlur
         result="result0"
         in="fbSourceGraphic"
         stdDeviation="6"
         id="feGaussianBlur2520" />
      <feSpecularLighting
         specularExponent="25"
         specularConstant="1"
         surfaceScale="4"
         lighting-color="#ffffff"
         result="result1"
         in="result0"
         id="feSpecularLighting2524">
        <feDistantLight
           azimuth="235"
           elevation="45"
           id="feDistantLight2522" />
      </feSpecularLighting>
      <feComposite
         k3="1"
         k2="1"
         operator="arithmetic"
         in="fbSourceGraphic"
         in2="result1"
         result="result4"
         id="feComposite2526"
         k1="0"
         k4="0" />
      <feComposite
         operator="in"
         result="result2"
         in2="SourceGraphic"
         in="result4"
         id="feComposite2528" />
    </filter>
    <filter
       style="color-interpolation-filters:sRGB"
       inkscape:label="Feather"
       id="filter2616">
      <feGaussianBlur
         stdDeviation="53.85"
         result="blur"
         id="feGaussianBlur2608" />
      <feComposite
         in="SourceGraphic"
         in2="blur"
         operator="atop"
         result="composite1"
         id="feComposite2610" />
      <feComposite
         in2="composite1"
         operator="in"
         result="composite2"
         id="feComposite2612" />
      <feComposite
         in2="composite2"
         operator="in"
         result="composite3"
         id="feComposite2614" />
    </filter>
  </defs>
  <sodipodi:namedview
     pagecolor="#000000"
     bordercolor="#666666"
     borderopacity="1"
     objecttolerance="10"
     gridtolerance="10"
     guidetolerance="10"
     inkscape:pageopacity="0"
     inkscape:pageshadow="2"
     inkscape:window-width="1920"
     inkscape:window-height="1053"
     id="namedview218"
     showgrid="false"
     inkscape:zoom="0.47625722"
     inkscape:cx="1218.0919"
     inkscape:cy="692.2543"
     inkscape:window-x="0"
     inkscape:window-y="0"
     inkscape:window-maximized="1"
     inkscape:current-layer="svg216"
     inkscape:pagecheckerboard="true"
     fit-margin-top="-200"
     fit-margin-left="-200"
     fit-margin-right="-200"
     fit-margin-bottom="-200" />
  <image
     sodipodi:absref="/mnt/data/o/k/j2018/hry/detektivka/git/static/cia/background.jpg"
     y="-40"
     x="56"
     id="image1107"
     xlink:href="file:///mnt/data/o/k/j2018/hry/detektivka/git/static/cia/background.jpg"
     preserveAspectRatio="none"
     height="1600"
     width="2560"
     style="stroke-width:1.39751709;filter:url(#filter2616)"
     transform="matrix(0.72924482,0,0,0.70212169,361.72892,8.9858883)" />
  <g
     transform="matrix(0.99752488,0,0,0.96042348,1081.6271,199.00313)"
     id="g1322"
     style="stroke-width:1.02166092;filter:url(#filter2530)">
    <g
       id="g1116"
       transform="matrix(0.99536,0,0,0.99536,-11.636,328.83)"
       style="stroke-width:1.02166092">
      <path
         style="fill:#fccc0f;stroke-width:0.51083046"
         inkscape:connector-curvature="0"
         id="path1110"
         d="M 270.06,176.2 C 408.33,175 519.45,61.93 518.25,-76.34 517.05,-214.63 403.97,-325.74 265.69,-324.54 127.41,-323.33 16.29,-210.26 17.51,-71.98 18.704,66.3 131.79,177.42 270.06,176.2 Z" />
      <path
         style="fill:none;stroke:#000000;stroke-width:1.59634495"
         inkscape:connector-curvature="0"
         id="path1112"
         d="M 270.06,176.2 C 408.33,175 519.45,61.93 518.25,-76.34 517.05,-214.63 403.97,-325.74 265.69,-324.54 127.41,-323.33 16.29,-210.26 17.51,-71.98 18.704,66.3 131.79,177.42 270.06,176.2 Z" />
      <path
         style="fill:#162c77;stroke-width:0.51083046"
         inkscape:connector-curvature="0"
         id="path1114"
         d="M 269.98,167.48 C 403.44,166.31 510.71,57.18 509.53,-76.28 508.37,-209.75 399.24,-316.99 265.77,-315.82 132.32,-314.66 25.06,-205.52 26.23,-72.06 27.398,61.39 136.54,168.64 269.98,167.48 Z" />
    </g>
    <path
       style="fill:#ffffff;stroke-width:0.51083046"
       inkscape:connector-curvature="0"
       id="path1118"
       d="m 254.49,31.893 -0.15,36.095 4.88,0.018 0.14,-36.094 z m 26.11,0.496 c -10.34,-0.101 -16.08,8.498 -17.05,16.689 -0.45,3.792 -1.03,9.95 3.84,15.795 1.63,2.016 4.36,4.623 10.5,5.348 4.89,0.581 9.65,-1.08 12.5,-4.188 l 0.59,4.785 3.15,0.37 2.28,-19.167 -15.72,-1.869 -0.5,4.143 11.19,1.328 c -0.46,3.848 -1.64,6.945 -5.08,9.066 -2.9,1.783 -5.81,1.638 -7.61,1.426 -9.53,-1.132 -11.04,-8.905 -10.18,-16.193 1.12,-9.385 7.02,-13.894 13.46,-13.129 3.94,0.467 9.03,2.385 9.84,8.809 l 4.69,0.558 C 296.41,37.998 289.41,33.321 282.73,32.527 282,32.441 281.29,32.395 280.6,32.389 Z m -48.62,0.72 -4.86,0.405 2.88,34.97 -0.71,-3.433 -17.92,3.717 -6.45,-31.108 -4.78,0.988 7.34,35.342 22.59,-4.689 0.01,0.174 23.1,-1.905 -0.36,-4.304 -18.23,1.502 z m 75.54,4.411 -10.21,34.613 25.55,7.535 1.22,-4.147 -20.87,-6.16 3.41,-11.564 18.94,5.588 1.23,-4.145 -18.95,-5.59 3.13,-10.605 20.53,6.059 1.23,-4.149 z m -113.76,2.664 -24.77,8.808 12.09,33.998 25.1,-8.926 -1.45,-4.074 -20.5,7.295 -4.04,-11.365 18.61,-6.619 -1.45,-4.072 -18.61,6.619 -3.71,-10.42 20.18,-7.174 z m 146.42,7.603 -15.66,32.512 4.25,2.049 12.65,-26.264 0.1,0.047 3.88,34.224 4.93,2.377 15.66,-32.515 -4.26,-2.049 -12.65,26.264 -0.09,-0.043 -3.61,-34.094 z m -175.82,3.068 -25.91,13.674 2.01,3.823 10.8,-5.7 14.83,28.092 4.31,-2.279 -14.83,-28.086 10.81,-5.697 z m -29.8,16.141 -3.8,2.805 17.29,23.463 -0.08,0.062 -31.82,-12.765 -4.65,3.427 21.4,29.052 3.81,-2.81 -17.29,-23.46 0.08,-0.063 32.06,12.588 4.41,-3.248 z m 242.31,2.535 c -5.47,0.079 -10.74,3.222 -14.75,8.885 -8.02,11.319 -4.54,20.319 2.15,25.054 2.22,1.57 11.58,7.47 21.09,-2.48 l -3.85,-2.728 c -6.2,5.888 -11.55,3.948 -14.13,2.118 -7.3,-5.172 -5.98,-12.246 -1.07,-19.179 5.49,-7.748 12.59,-8.635 17.92,-4.859 2.83,2.009 6.47,6.004 3.91,11.955 l 3.85,2.73 c 2.92,-5.328 2.33,-12.834 -5.26,-18.209 -3.22,-2.278 -6.58,-3.334 -9.86,-3.287 z m 26.55,17.262 -25.17,25.857 19.08,18.59 3.02,-3.1 -15.6,-15.18 8.42,-8.65 14.15,13.78 3.02,-3.09 -14.15,-13.78 7.71,-7.929 15.34,14.939 3.01,-3.1 z m -297.33,2.477 -3.59,3.296 24.41,26.584 3.59,-3.29 z m 149.67,3.566 c -1.78,0.015 -4.39,0.14 -9.69,0.092 0,0 -31.74,4.581 -7.02,23.402 9.54,7.26 6.26,15.77 6.26,15.77 0.03,4.45 -12.21,11.81 -16.63,16.23 -5.37,5.37 -8.38,15.05 -23.03,15.97 l -0.26,0.39 c 0,0 12.25,8.24 19.23,3.4 1.63,-1.13 -11.18,8.01 2.89,2 0,0.06 -0.01,0.1 -0.01,0.16 -0.69,13.24 4.47,7.18 2.49,10.41 -1.87,3.04 14.91,4.14 10.85,-4.21 1.78,1.99 3.98,3.94 5.99,4.46 6.03,1.55 9.24,1.52 7.59,-3.68 -0.06,-0.21 -0.11,-0.44 -0.18,-0.66 0.97,0.61 2.08,1.17 3.39,1.64 0,0 -3.88,-8.39 0.5,-11.23 7.3,-4.74 3.22,10.92 16.62,-1.75 0,0 1.67,3.84 3.63,5.03 -0.4,12.05 4.44,6.4 2.52,9.55 -1.87,3.05 14.91,4.14 10.84,-4.21 1.79,2 3.98,3.95 6,4.47 6.02,1.54 9.23,1.51 7.58,-3.68 -1.19,-3.74 -1.56,-8.92 -3.17,-10.93 -1.46,-4.12 -4.56,-5.35 -7.65,-7.1 -4.3,-2.44 -6.78,-23.5 -8.22,-26.9 -2.45,-5.79 0.75,-6.82 -1.99,-21.03 -2.71,-14.208 -19.77,-16.063 -23.78,-17.034 -2.02,-0.482 -2.97,-0.575 -4.75,-0.56 z M 77.08,120.7 l -3.041,3.81 26.949,21.47 -36.363,-6.98 -2.828,4.75 22.418,28.07 c -0.524,-0.03 -1.114,-0.2 -1.897,-0.5 l -6.181,-2.14 c -4.743,-1.68 -6.349,-0.1 -7.909,1.5 -0.402,-2.66 -1.214,-5.91 -6.164,-7.88 -7.096,-2.84 -11.212,1.91 -13.414,7.41 l -6.197,15.5 33.522,13.4 1.81,-4.53 -14.379,-5.74 4.385,-10.97 c 2.163,-5.42 5.61,-4.69 8.365,-3.59 1.26,0.5 6.405,2.39 8.721,2.56 l 1.598,-4 1.957,-3.29 -7.098,-8.61 7.406,-12.43 10.852,2.3 2.396,-4.03 0.28,0.22 14.44,-18.13 -3.38,-2.69 -11.4,14.31 z m 365,10.36 -37.62,8.48 2.77,4.2 10.85,-2.62 7.95,12.1 -6.82,8.75 2.93,4.45 22.97,-30.74 z m -3.12,5.05 0.06,0.08 -10.35,13.18 -6.15,-9.37 z m -371.2,8.15 16.371,3.55 -5.736,9.62 -10.688,-13.09 z m 378.23,10.65 c -2.84,0.08 -5.67,0.77 -8.18,1.88 -3.49,1.56 -9.08,4.2 -11.61,11.38 -0.89,2.43 -1.74,6.11 0.77,11.76 2,4.5 5.85,7.73 9.97,8.6 l -3.79,2.95 1.28,2.9 17.64,-7.84 -6.42,-14.47 -3.82,1.69 4.57,10.29 c -3.54,1.58 -6.8,2.15 -10.39,0.27 -3.01,-1.58 -4.37,-4.16 -5.11,-5.81 -3.89,-8.78 2.02,-14.04 8.72,-17.02 8.64,-3.84 15.54,-1.07 18.17,4.86 1.61,3.63 2.56,8.98 -2.55,12.96 l 1.91,4.31 c 6.97,-4.25 7.43,-12.64 4.69,-18.8 -3.28,-7.39 -9.61,-10.1 -15.85,-9.91 z m -199.13,10.98 c 0.14,-0.02 0.26,0.02 0.37,0.11 -0.25,0.04 -0.52,0.06 -0.8,0.07 0.16,-0.1 0.3,-0.17 0.43,-0.18 z m -46.43,0.78 c -0.31,0 -0.65,0.06 -1.02,0.22 -4,1.64 -13.64,-2.29 -8.79,4.08 6.73,8.81 -11.73,-12.73 -12.43,0.51 -0.68,13.24 4.49,7.18 2.51,10.41 -1.87,3.04 14.89,4.13 10.85,-4.19 1.79,1.99 3.97,3.93 5.98,4.44 6.03,1.55 9.23,1.53 7.59,-3.68 -1.49,-4.7 -1.69,-11.73 -4.69,-11.79 z m -142.35,0.37 c 0.758,0.04 1.616,0.23 2.588,0.61 4.948,1.98 4.387,5.82 3.064,9.13 l -4.201,10.51 -11.392,-4.56 4.517,-11.3 c 0.728,-1.82 2.141,-4.54 5.424,-4.39 z m 233.36,2.69 c 1.33,1.79 0.79,1.44 -0.56,0.38 0.26,-0.01 0.45,-0.14 0.56,-0.38 z m 178.49,18.07 -34.95,9.03 6.67,25.8 4.18,-1.09 -5.44,-21.07 11.68,-3.02 4.95,19.13 4.18,-1.08 -4.95,-19.13 10.71,-2.77 5.36,20.73 4.19,-1.08 z m -318.49,1.38 c 3.87,1.41 8.1,9.2 8.1,12.89 l 1.47,169.24 c 0,15.07 16.1,25.39 29.88,25.39 h 38.67 c 12.53,0 21.39,1.08 25.39,16.01 4,-14.93 12.86,-16.01 25.39,-16.01 h 38.77 c 13.78,0 29.88,-10.32 29.88,-25.39 l 1.47,-169.24 c 0,-3.69 4.23,-11.48 8.1,-12.89 H 254.95 Z m -110.58,1.45 -6.677,28.53 4.207,0.98 2.783,-11.89 30.931,7.24 1.11,-4.75 -30.932,-7.23 2.785,-11.89 z m 436.91,29.52 -35.94,3.47 0.46,4.7 29.03,-2.8 v 0.1 l -27.26,21.06 0.52,5.46 35.93,-3.47 -0.45,-4.7 -29.02,2.8 -0.01,-0.1 27.29,-20.76 z m -444.26,3.48 -0.377,4.71 29.056,2.34 -0.007,0.1 -30.504,15.65 -0.465,5.76 35.971,2.89 0.378,-4.7 -29.058,-2.34 0.01,-0.1 30.529,-15.95 0.439,-5.47 z m 427.5,32.58 c -12.05,-0.29 -17.46,6.75 -18.23,14.39 -0.28,2.71 -0.79,13.77 12.56,17.13 l 0.48,-4.7 c -8.19,-2.49 -9.14,-8.1 -8.82,-11.24 0.9,-8.91 7.7,-11.25 16.15,-10.4 9.46,0.96 13.73,6.69 13.07,13.19 -0.35,3.45 -2.03,8.59 -8.46,9.3 l -0.48,4.7 c 6.07,-0.1 12.31,-4.32 13.24,-13.57 1.06,-10.45 -5.96,-17.52 -17.01,-18.64 -0.86,-0.08 -1.7,-0.14 -2.5,-0.16 z m -393.82,0.28 -4.309,0.32 1.644,21.7 -12.025,0.91 -1.496,-19.69 -4.309,0.32 1.495,19.7 -11.024,0.84 -1.621,-21.35 -4.309,0.32 1.987,26.21 35.98,-2.73 z m -8.583,30.57 c -0.776,-0.02 -1.591,0.01 -2.449,0.09 l 1.09,4.59 c 8.549,-0.32 11.276,4.67 12.006,7.74 2.061,8.71 -3.604,13.15 -11.869,15.11 -9.244,2.19 -15.154,-1.84 -16.658,-8.2 -0.799,-3.37 -0.891,-8.77 4.959,-11.55 l -1.086,-4.6 c -5.707,2.07 -10.223,8.1 -8.08,17.15 2.418,10.22 11.362,14.61 22.171,12.05 13.499,-3.19 16.83,-12.24 14.942,-20.22 -0.586,-2.47 -3.376,-11.96 -15.026,-12.16 z m 419.4,4.4 -24.08,8.4 -14.16,-3.29 -1.1,4.75 14.15,3.29 17.93,18.14 1.29,-5.58 -14.55,-14.01 19.23,-6.17 z" />
    <g
       style="fill:none;stroke:#4c4c4c;stroke-width:1.58888698"
       id="g1126">
      <path
         inkscape:connector-curvature="0"
         id="path1120"
         d="m 190.62,170.97 c 6.7221,8.8058 -11.738,-12.731 -12.432,0.50701 -0.68058,13.241 4.4856,7.179 2.5089,10.411 -1.9783,3.2131 16.873,4.2583 9.9642,-5.7016 -6.9031,-9.9692 0.83828,4.4045 6.8642,5.9535 6.0288,1.5459 9.231,1.5304 7.5887,-3.6828 -1.642,-5.1914 -1.7201,-13.204 -5.7084,-11.574 -3.9982,1.6392 -13.645,-2.2831 -8.7856,4.0872 z"
         style="stroke-width:1.58888698" />
      <path
         inkscape:connector-curvature="0"
         id="path1122"
         d="m 239.92,169.74 c 6.732,8.8027 -11.737,-12.731 -12.42,0.5039 -0.68866,13.245 4.4751,7.179 2.4924,10.411 -1.9776,3.2163 16.877,4.2614 9.9738,-5.7078 -6.8982,-9.9598 0.84449,4.4014 6.8711,5.9597 6.0287,1.549 9.2335,1.5148 7.5896,-3.6797 -1.6495,-5.1914 -1.7238,-13.207 -5.7252,-11.574 -3.9892,1.6392 -13.648,-2.2831 -8.7818,4.0872 z"
         style="stroke-width:1.58888698" />
      <path
         inkscape:connector-curvature="0"
         id="path1124"
         d="m 290.82,168.9 c 6.7311,8.8089 -11.742,-12.728 -12.42,0.5039 -0.67808,13.241 4.4698,7.1822 2.4946,10.411 -1.972,3.2194 16.874,4.2583 9.966,-5.7078 -6.896,-9.9629 0.84607,4.4014 6.8742,5.9628 6.025,1.5428 9.2351,1.5148 7.5834,-3.6797 -1.6548,-5.1945 -1.7139,-13.21 -5.7171,-11.574 -3.9908,1.6361 -13.649,-2.2862 -8.7809,4.0841 z"
         style="stroke-width:1.58888698" />
    </g>
    <path
       style="fill:#e50f07;stroke-width:0.51083046"
       inkscape:connector-curvature="0"
       id="path1128"
       d="m 215.47,170.36 c 3.0588,4.0032 1.2097,0.93938 -2.1058,-1.4837 -3.9883,-2.899 -9.9511,-5.2225 -10.322,1.9876 -0.68276,13.244 4.4757,7.179 2.5005,10.408 -1.9752,3.2194 16.871,4.2614 9.9726,-5.7078 -6.9097,-9.9598 0.84885,4.4045 6.8648,5.9628 6.0266,1.5459 9.2313,1.5179 7.5887,-3.6797 -1.6507,-5.1945 -1.7307,-13.207 -5.7137,-11.574 -3.9936,1.6392 -13.648,-2.2831 -8.7846,4.0872 z" />
    <path
       style="fill:none;stroke:#000000;stroke-width:1.58888698"
       inkscape:connector-curvature="0"
       id="path1130"
       d="m 215.47,170.36 c 3.0588,4.0032 1.2097,0.93938 -2.1058,-1.4837 -3.9883,-2.899 -9.9511,-5.2225 -10.322,1.9876 -0.68276,13.244 4.4757,7.179 2.5005,10.408 -1.9752,3.2194 16.871,4.2614 9.9726,-5.7078 -6.9097,-9.9598 0.84885,4.4045 6.8648,5.9628 6.0266,1.5459 9.2313,1.5179 7.5887,-3.6797 -1.6507,-5.1945 -1.7307,-13.207 -5.7137,-11.574 -3.9936,1.6392 -13.648,-2.2831 -8.7846,4.0872 z" />
    <path
       style="fill:#e50f07;stroke-width:0.51083046"
       inkscape:connector-curvature="0"
       id="path1132"
       d="m 266.78,169.51 c 6.7342,8.8058 -11.741,-12.731 -12.421,0.5039 -0.69238,13.232 4.4713,7.1822 2.4962,10.402 -1.9783,3.2256 16.877,4.2552 9.9685,-5.7015 -6.8982,-9.9567 0.83983,4.4045 6.8742,5.9535 6.0219,1.5552 9.232,1.5241 7.5834,-3.6704 -1.6486,-5.2039 -1.7201,-13.223 -5.7202,-11.571 -3.9814,1.6361 -13.644,-2.2987 -8.7809,4.0841 z" />
    <path
       style="fill:none;stroke:#000000;stroke-width:1.58888698"
       inkscape:connector-curvature="0"
       id="path1134"
       d="m 266.78,169.51 c 6.7342,8.8058 -11.741,-12.731 -12.421,0.5039 -0.69238,13.232 4.4713,7.1822 2.4962,10.402 -1.9783,3.2256 16.877,4.2552 9.9685,-5.7015 -6.8982,-9.9567 0.83983,4.4045 6.8742,5.9535 6.0219,1.5552 9.232,1.5241 7.5834,-3.6704 -1.6486,-5.2039 -1.7201,-13.223 -5.7202,-11.571 -3.9814,1.6361 -13.644,-2.2987 -8.7809,4.0841 z" />
    <path
       style="fill:#e50f07;stroke-width:0.51083046"
       inkscape:connector-curvature="0"
       id="path1136"
       d="m 314.87,169.08 c 6.7373,8.8214 -11.733,-12.725 -12.411,0.51946 -0.68743,13.229 4.4636,7.1728 2.4884,10.402 -1.9752,3.2225 16.881,4.2614 9.9722,-5.7015 -6.896,-9.9629 0.84604,4.3982 6.8742,5.9504 6.0188,1.549 9.2195,1.5242 7.5772,-3.6797 -1.6517,-5.1914 -1.7077,-13.21 -5.7109,-11.571 -4.0001,1.633 -13.649,-2.2831 -8.7902,4.081 z" />
    <g
       style="fill:none;stroke-width:1.58888698"
       id="g1158">
      <path
         style="stroke:#000000;stroke-width:1.58888698"
         inkscape:connector-curvature="0"
         id="path1138"
         d="m 314.87,169.08 c 6.7373,8.8214 -11.733,-12.725 -12.411,0.51946 -0.68743,13.229 4.4636,7.1728 2.4884,10.402 -1.9752,3.2225 16.881,4.2614 9.9722,-5.7015 -6.896,-9.9629 0.84604,4.3982 6.8742,5.9504 6.0188,1.549 9.2195,1.5242 7.5772,-3.6797 -1.6517,-5.1914 -1.7077,-13.21 -5.7109,-11.571 -4.0001,1.633 -13.649,-2.2831 -8.7902,4.081 z" />
      <path
         style="stroke:#7f7f7f;stroke-width:1.58888698"
         inkscape:connector-curvature="0"
         id="path1140"
         d="m 205.39,164.69 c 0,0 12.25,8.2366 19.235,3.3998 1.6974,-1.1789 -12.438,8.8992 4.8748,1.1384 12.669,-5.6798 2.5478,16.212 14.825,-0.72786 5.9255,-8.1837 0.18289,4.983 13.309,9.7048 0,0 -3.8844,-8.3859 0.50483,-11.232 7.2947,-4.7342 3.2175,10.927 16.615,-1.745 0,0 3.2754,7.5803 6.0499,4.756 2.787,-2.8306 1.7792,-3.8197 5.0048,-2.6501 3.21,1.1758 3.0887,-1.154 9.7607,0.6252 3.9223,1.0451 2.619,1.3095 7.4652,3.9254 0.12132,-9.6923 -4.224,-11.092 -8.5321,-13.528 -4.3018,-2.4386 -6.7746,-23.497 -8.221,-26.906 -2.448,-5.7824 0.74963,-6.8182 -1.9876,-21.027 -2.7092,-14.206 -19.768,-16.06 -23.783,-17.03 -4.0287,-0.96426 -3.8268,-0.37326 -14.441,-0.46969 0,0 -31.739,4.5818 -7.016,23.407 9.538,7.2568 6.258,15.77 6.258,15.77 0.0274,4.4418 -12.207,11.804 -16.629,16.227 -5.365,5.3718 -8.3769,15.052 -23.032,15.966 l -0.26036,0.39504 z" />
      <g
         style="stroke:#8c8c8c;stroke-width:1.58888698;stroke-linecap:round"
         id="g1156">
        <path
           inkscape:connector-curvature="0"
           id="path1142"
           d="m 244.65,109.58 c 0,0 1.5811,2.3826 3.9976,3.5584 m -6.7426,-8.6628 c 1.8246,2.4946 3.8971,4.4791 5.513,5.0732"
           style="stroke-width:1.58888698" />
        <path
           inkscape:connector-curvature="0"
           id="path1144"
           d="m 241.51,104.87 c 2.4809,3.7979 4.7074,6.0779 7.7252,6.8618"
           style="stroke-width:1.58888698" />
        <path
           inkscape:connector-curvature="0"
           id="path1146"
           d="m 264.17,146.48 c 0.24354,5.2163 0.22769,3.8072 1.843,5.1914 1.6144,1.3935 5.7638,-5.6549 5.7389,-8.0562"
           style="stroke-width:1.58888698" />
        <path
           inkscape:connector-curvature="0"
           id="path1148"
           d="m 264.62,106.42 c 2.0312,0.67809 3.2349,2.3826 2.8306,3.5771 m -0.43,-5.21 c 2.2396,0.4728 2.815,0.78385 3.2256,2.7808 m -0.006,-3.8104 c 2.3982,-0.0218 2.8088,0.56922 3.0141,1.5708"
           style="stroke-width:1.58888698" />
        <path
           inkscape:connector-curvature="0"
           id="path1150"
           d="m 257.33,119.49 c 0.37203,-3.4122 -1.3866,2.4169 1.433,3.5895"
           style="stroke-width:1.58888698" />
        <path
           inkscape:connector-curvature="0"
           id="path1152"
           d="m 239.68,115.6 c 3.8265,2.3764 8.2114,8.0313 8.245,12.044 m -4.7152,-11.257 c 1.8355,1.7014 4.9519,4.6782 5.3606,6.2832"
           style="stroke-width:1.58888698" />
        <path
           inkscape:connector-curvature="0"
           id="path1154"
           d="m 269.15,121.21 c 0.6221,4.2178 0.23328,3.8072 2.8523,5.3936 2.6315,1.5801 3.5709,-5.0359 2.5413,-8.641 m 1.7916,-0.42303 c 3.2598,5.1821 6.0779,6.7653 3.941,-8.0406 m -1.4557,16.84 c 1.2473,4.3982 5.2505,4.7653 2.7621,-4.8337 m -11.528,10.523 c 1.6423,5.5958 4.8057,-0.84606 4.3671,-4.8462 m -1.5335,8.0313 c -1.6548,-5.6051 2.8834,9.1884 4.3734,-2.8492 m -15.771,10.324 c -0.0432,-4.8213 2.1142,7.3377 3.9335,4.7062 0.46502,-0.64077 0.89116,-2.2054 1.2644,-5.1572 m -25.81,0.47279 c -0.46192,-7.2132 1.7213,13.21 6.3992,-2.4635 m -15.94,10.958 c 0.75617,-4.4138 -1.9198,9.6457 4.7954,-0.84295 m 14.054,1.8943 c -1.2666,-6.812 -1.0644,16.436 7.2129,-0.0653 m -17.172,8.1651 c -0.42583,-3.6144 2.4728,6.389 6.3974,-1.661 m 27.588,-9.8665 c 2.8523,6.7933 5.658,7.1697 7.2132,0.74342 m -2.0747,-8.3984 c -1.266,-7.6114 3.3407,14.392 5.5958,-1.2535 m -21.884,19.027 c -0.85819,-7.6052 2.5833,20.019 6.8415,1.9472 m 12.37,-6.1184 c -2.4604,-7.2039 4.1121,12.389 6.389,-3.266 m -13.574,6.9364 c -2.4604,-6.7964 4.532,13.593 6.8275,1.5366 m -31.246,2.6812 c -1.6358,-4.3982 0.88401,10.006 5.6194,0.34837"
           style="stroke-width:1.58888698" />
      </g>
    </g>
    <g
       style="stroke-width:0.51083046"
       id="g1166">
      <path
         style="fill:#727272;stroke-width:0.51083046"
         inkscape:connector-curvature="0"
         id="path1160"
         d="m 241.38,102.91 c -0.12908,0.75896 -0.39565,1.7046 -0.39565,1.7046 0,0 3.6679,-0.0343 8.7787,2.6221 3.2685,1.7046 5.0804,-2.4791 5.0387,-1.7574 0.15242,-2.5413 -0.0905,-4.5102 0.57794,-5.9722 0,0 -2.3385,0.04668 -2.8729,0.13375 -2.4862,0.39504 -1.67,-0.009 -3.2722,0 -0.005,0 -7.0745,-1.1789 -7.8546,3.2691 z" />
      <path
         style="fill:#fccc0f;stroke-width:0.51083046"
         inkscape:connector-curvature="0"
         id="path1162"
         d="m 249.71,104.61 c 1.4905,-0.009 2.1892,-0.91761 2.6806,-1.7263 0.37201,-0.6252 0.73967,-1.4899 0.25597,-1.801 -0.49891,-0.30795 -2.2212,0.1213 -2.9671,0.1213 -0.8784,0.0124 -1.7876,-0.15241 -2.2775,0.26751 -0.34464,0.28616 -0.39938,1.0762 -0.39938,1.4682 0.0121,0.93315 1.2159,1.6766 2.7074,1.6704 z" />
      <path
         style="fill:#fccc0f;stroke-width:0.51083046"
         inkscape:connector-curvature="0"
         id="path1164"
         d="m 241.51,115.86 c 1.6965,1.7014 12.507,2.0218 10.856,0.52568 -1.6454,-1.4899 -5.709,-1.6175 -6.5308,-4.0281 0,0 -6.6919,-11.556 -14.542,-12.859 -7.8478,-1.3033 -0.85664,-0.23018 -1.307,-0.26128 -3.532,-0.25196 -4.3239,0 -5.2353,0.65631 -6.937,1.0451 -16.097,-0.65631 -7.3495,18.032 0.82553,1.7419 -0.81774,-2.4915 1.5826,-2.7124 0,0 22.104,0.2364 22.525,0.64698 z" />
    </g>
    <path
       style="fill:none;stroke:#595959;stroke-width:1.58888698"
       inkscape:connector-curvature="0"
       id="path1168"
       d="m 241.51,115.86 c 1.6965,1.7014 12.507,2.0218 10.856,0.52568 -1.6454,-1.4899 -5.709,-1.6175 -6.5308,-4.0281 0,0 -6.6919,-11.556 -14.542,-12.859 -7.8475,-1.3033 -0.85633,-0.23018 -1.3067,-0.26128 -3.532,-0.25196 -4.3239,0 -5.2353,0.65631 -6.937,1.0451 -16.097,-0.65631 -7.3495,18.032 0.82553,1.7419 -0.81774,-2.4915 1.5826,-2.7124 0,0 22.104,0.2364 22.525,0.64698 z" />
    <path
       style="fill:none;stroke:#4c4c4c;stroke-width:1.58888698"
       inkscape:connector-curvature="0"
       id="path1170"
       d="m 249.89,116.78 c -15.319,-3.5398 -22.785,-9.8136 -25.133,-16.887 m -6.937,18.327 c 0,0 -0.27031,-4.109 1.5347,-4.4169 1.8019,-0.32039 5.0088,0.0498 19.929,-0.69053" />
    <g
       style="stroke-width:0.51083046"
       id="g1178">
      <path
         inkscape:connector-curvature="0"
         id="path1172"
         d="m 250.26,103.59 c 0.43827,-0.0125 0.78074,-0.36082 0.78074,-0.79318 0,-0.42302 -0.35398,-0.77762 -0.79131,-0.7683 -0.42894,0 -0.76768,0.35772 -0.76768,0.78075 0,0.44169 0.35304,0.78073 0.77825,0.78073 z"
         style="stroke-width:0.51083046" />
      <path
         style="fill:#4c4c4c;stroke-width:0.51083046"
         inkscape:connector-curvature="0"
         id="path1174"
         d="m 231.86,104.04 c 0.0666,0.0747 0,0.25195 0.0401,0.37326 0.10016,0.30483 0.44356,0.43547 0.5742,0.7123 0.24293,0.46658 0.5602,0.71231 0.87778,1.1291 0.66005,0.86472 1.6996,2.056 2.1332,2.3982 0.15956,-0.72786 -1.3745,-2.6004 -1.9857,-3.0452 -0.35615,-0.44792 -0.75181,-1.0731 -1.1664,-1.8414 -0.26906,0.031 -0.74123,-0.49458 -0.95772,-0.64698 -0.0912,0.42613 0.22645,0.64698 0.48461,0.9207 z" />
      <path
         style="fill:#f9db11;stroke-width:0.51083046"
         inkscape:connector-curvature="0"
         id="path1176"
         d="m 61.863,366.74 c 0,0 64.694,119.61 203.98,109.54 134.57,-9.7141 180.82,-108.18 185.26,-121.93 1.4215,-4.3939 2.8679,-7.7893 -0.27683,-10.634 -6.7031,-6.0618 -26.837,-8.7999 -30.29,-8.4204 -7.2754,0.80966 -6.6409,6.5865 -4.7995,8.3473 1.9472,1.8318 5.0546,0.42303 4.4604,1.6921 -37.223,79.58 -126.35,98.14 -153.58,99.655 0,0 -111.87,15.758 -174.85,-92.461 0,0 8.7856,-14.668 -5.9886,-14.274 -5.6141,0.13687 -10.479,13.397 -20.391,17.362 0,0 -7.7028,4.8244 -3.5261,11.125 z" />
    </g>
    <path
       style="fill:none;stroke:#3f3f3f;stroke-width:1.58888698;stroke-linecap:round"
       inkscape:connector-curvature="0"
       id="path1180"
       d="m 63.483,357.36 c 0,0 10.875,0 6.5482,11.657 -1.5235,4.1342 10.212,-13.091 21.729,-16.096 m 360.49,-7.0761 c 0,0 -1.0607,-1.2629 -2.7528,-1.5636 -2.224,-0.39939 -5.7544,1.5636 -5.1043,6.0235 0.13686,0.86037 0.73719,1.5357 1.0482,1.7739 4.1307,3.2275 -10.053,-5.5793 -25.235,-6.7479" />
    <path
       style="fill:#e50f07;stroke-width:0.51083046"
       inkscape:connector-curvature="0"
       id="path1182"
       d="m 412.83,369.86 -1.7,2.47 11.94,17.13 1.55,-2.24 -3.54,-4.91 4.45,-6.46 5.79,1.63 1.63,-2.38 z m 1.5,2.95 8.73,2.5 -3.44,5 -5.31,-7.45 z m -315.36,3.14 -9.856,8.54 c -2.756,2.39 -3.83,6.31 -0.388,10.29 3.513,4.05 7.705,3.73 10.73,1.11 l 9.583,-8.31 -1.72,-2 -9.347,8.1 c -3.21,2.78 -5.834,1.45 -7.422,-0.38 -1.552,-1.79 -2.363,-4.51 0.847,-7.29 l 9.302,-8.06 z m 307.84,5.6 c -1.97,0.07 -4.07,0.99 -5.91,3.14 -3.7,4.32 -2.77,9.64 1.79,13.55 5.71,4.89 10.74,3.46 13.63,0.1 0.95,-1.12 4.6,-5.87 -0.29,-11.51 l -1.66,1.95 c 2.86,3.64 1.54,6.42 0.43,7.73 -3.15,3.67 -6.9,2.61 -10.4,-0.39 -3.9,-3.34 -4.02,-7.22 -1.72,-9.9 1.22,-1.43 3.56,-3.2 6.64,-1.52 l 1.67,-1.94 c -1.2,-0.8 -2.65,-1.26 -4.18,-1.21 z m -295.23,8.72 -13.627,14.02 1.84,1.79 10.997,-11.33 0.04,0.04 -3.87,18.25 2.13,2.07 13.62,-14.03 -1.83,-1.78 -11.01,11.33 -0.04,-0.03 3.99,-18.15 z m 281.54,3.69 -1.87,1.87 13.85,13.81 1.86,-1.87 z m -4.65,6.64 c -1.61,0.01 -3.21,0.93 -4.58,2.11 l -6.84,5.91 12.78,14.79 2,-1.72 -5.48,-6.35 4.84,-4.18 c 2.39,-2.07 3.86,-0.86 4.91,0.35 0.49,0.56 2.49,2.75 3.56,3.41 l 2.45,-2.12 -0.29,-0.33 c -0.91,0.19 -1.29,-0.03 -2.02,-0.84 l -2.44,-2.57 c -1.86,-1.99 -3.03,-1.63 -4.17,-1.25 0.47,-1.38 0.88,-3.14 -1,-5.33 -1.19,-1.37 -2.46,-1.9 -3.72,-1.88 z m -0.29,2.58 c 0.67,0.07 1.39,0.43 2.12,1.29 1.89,2.18 0.67,3.89 -0.79,5.16 l -4.64,4 -4.35,-5.03 4.99,-4.31 c 0.62,-0.53 1.57,-1.22 2.67,-1.11 z m -262.72,0.16 -12.79,14.79 2,1.73 12.79,-14.79 z m 3.25,2.99 -1.43,1.85 5.22,4.06 -10.55,13.6 2.09,1.62 10.55,-13.6 5.23,4.06 1.44,-1.85 z m 245.88,4.21 -11.67,8.16 11.21,16.01 11.82,-8.27 -1.34,-1.92 -9.66,6.76 -3.74,-5.35 8.76,-6.14 -1.35,-1.91 -8.76,6.13 -3.43,-4.91 9.5,-6.64 z m -232.33,6.21 -10.72,16.33 12.05,7.92 1.29,-1.96 -9.85,-6.47 3.58,-5.45 8.94,5.87 1.29,-1.96 -8.95,-5.87 3.29,-5.01 9.7,6.37 1.28,-1.96 z m 217.87,3.86 -3.29,1.8 3.09,17.16 -0.05,0.03 -12.85,-11.8 -3.32,1.82 9.41,17.14 2.25,-1.23 -5.57,-10.12 c -0.26,-0.5 -1.51,-2.65 -2.38,-4.22 l 0.05,-0.03 12.72,11.72 2.28,-1.26 -3.08,-17.04 0.05,-0.03 c 0.88,1.61 2.02,3.8 2.3,4.3 l 5.55,10.12 2.25,-1.23 z m -203.3,5.53 -9.13,17.29 6.91,3.65 c 5.68,3 10.01,-1.12 12.06,-4.99 2.63,-4.99 1.67,-9.87 -2.83,-12.25 z m 1.28,3.24 4.36,2.3 c 3.18,1.68 4.02,4.92 1.72,9.28 -2.3,4.36 -5.54,5.7 -8.57,4.1 l -4.53,-2.39 z m 177.72,3.6 -2.76,1.16 0.81,20.87 2.51,-1.05 -0.33,-6.04 7.23,-3.04 4,4.49 2.65,-1.12 z m -0.33,3.3 6.01,6.8 -5.6,2.36 -0.46,-9.14 z m -153.65,1.86 c -2.74,0.03 -4.58,1.76 -5.37,3.9 -1.19,3.19 1.2,5.04 2.3,5.77 l 3.43,2.26 c 2.74,1.83 3.41,2.78 2.69,4.69 -0.97,2.63 -4.15,1.97 -5.94,1.3 -2.35,-0.87 -4.69,-2.84 -3.46,-6.16 l -2.32,-0.86 c -0.63,1.7 -0.9,3.35 0.14,5.34 0.54,1.04 1.49,2.55 4.88,3.81 3.14,1.17 7.62,1.47 9.23,-2.87 1.08,-2.91 -0.17,-5 -2.34,-6.44 l -4.79,-3.14 c -0.97,-0.66 -1.88,-1.58 -1.3,-3.13 1.03,-2.79 3.82,-2.24 5.38,-1.66 2.07,0.76 4.08,2.53 3.16,5.41 l 2.32,0.86 c 0.65,-2.05 1.43,-6.12 -4.97,-8.5 -1.11,-0.41 -2.13,-0.59 -3.04,-0.58 z m 137.09,1.37 -13.01,3.73 5.4,18.79 2.54,-0.73 -2.46,-8.53 9.22,-2.65 -0.65,-2.25 -9.21,2.65 -1.65,-5.76 10.46,-3 z m -125.66,2.84 -0.6,2.26 6.38,1.71 -4.44,16.62 2.55,0.69 4.45,-16.63 6.39,1.72 0.6,-2.27 z m 103.1,2.8 c -0.78,-0.02 -1.62,0.05 -2.51,0.23 -7.15,1.42 -8.15,7.81 -7.33,11.95 0.83,4.14 4.2,9.65 11.36,8.23 7.15,-1.43 8.15,-7.82 7.33,-11.96 -0.72,-3.62 -3.4,-8.29 -8.85,-8.45 z m -0.54,2.38 c 3.41,0.03 5.93,2.66 6.71,6.61 0.91,4.51 -0.95,8.29 -5.11,9.12 -4.17,0.83 -7.33,-1.95 -8.23,-6.46 -0.9,-4.52 0.96,-8.29 5.12,-9.13 0.52,-0.1 1.03,-0.15 1.51,-0.14 z m -79.91,0.2 -10.51,18.05 2.69,0.45 2.96,-5.27 7.73,1.31 0.96,5.94 2.84,0.48 -3.72,-20.46 z m 52.72,1.34 c -0.38,0.01 -0.78,0.03 -1.21,0.07 -4.71,0.42 -6.42,3.58 -6.15,6.62 0.31,3.39 3.26,4.03 4.57,4.21 l 4.07,0.56 c 3.26,0.48 4.27,1.04 4.45,3.07 0.26,2.8 -2.9,3.57 -4.8,3.75 -2.5,0.22 -5.46,-0.55 -5.78,-4.08 l -2.47,0.23 c 0.17,1.81 0.64,3.42 2.43,4.75 0.94,0.71 2.44,1.67 6.05,1.35 3.33,-0.31 7.51,-1.97 7.09,-6.58 -0.28,-3.09 -2.31,-4.44 -4.89,-4.81 l -5.67,-0.77 c -1.17,-0.16 -2.38,-0.61 -2.53,-2.26 -0.27,-2.95 2.48,-3.67 4.14,-3.82 2.19,-0.2 4.77,0.53 5.18,3.53 l 2.47,-0.23 c -0.28,-2 -1.22,-5.65 -6.95,-5.59 z m -42.71,0.32 -0.18,2.33 6.6,0.5 -1.31,17.16 2.63,0.2 1.31,-17.16 6.6,0.51 0.18,-2.34 z m 32.15,1.06 -14.24,0.16 0.22,19.54 14.42,-0.16 -0.03,-2.34 -11.78,0.13 -0.07,-6.53 10.7,-0.12 -0.03,-2.34 -10.7,0.12 -0.06,-5.99 11.6,-0.13 z m -41.3,0.38 0.05,0.01 1.41,8.96 -5.99,-1.01 z" />
    <g
       style="fill:none;stroke-width:1.58888698;stroke-linecap:round"
       id="g1192">
      <path
         style="stroke:#8c8c8c;stroke-width:1.58888698"
         inkscape:connector-curvature="0"
         id="path1184"
         d="m 285.88,166.53 c 5.8913,5.6145 8.1091,5.7793 2.2613,-7.994 z" />
      <path
         style="stroke:#727272;stroke-width:1.58888698"
         inkscape:connector-curvature="0"
         id="path1186"
         d="m 253.94,100.47 c -0.23982,0 2.9108,1.0731 5.4449,-2.1027 m -5.6658,1.4402 c -3.3385,0.76518 2.7323,0.50702 2.922,-2.5319" />
      <path
         style="stroke:#8c8c8c;stroke-width:1.58888698"
         inkscape:connector-curvature="0"
         id="path1188"
         d="m 241.12,115.6 c 3.0231,2.1836 6.9152,7.3004 7.3299,8.8992" />
      <path
         style="stroke:#8c8c8c;stroke-width:1.58888698"
         inkscape:connector-curvature="0"
         id="path1190"
         d="m 265.42,136.37 c -0.0357,-4.1401 1.5571,4.2147 3.1559,5.0204 0.72475,0.37326 1.4588,-0.82429 2.0498,-5.4745" />
    </g>
    <path
       style="fill:#6b0000;stroke-width:0.51083046"
       inkscape:connector-curvature="0"
       id="path1194"
       d="m 313.4,270.18 -58.004,24.916 10.048,3.4894 47.956,-28.405 z" />
    <path
       style="fill:none;stroke:#000000;stroke-width:1.58888698"
       inkscape:connector-curvature="0"
       id="path1196"
       d="m 313.4,270.18 -58.004,24.916 10.048,3.4894 47.956,-28.405 z" />
    <path
       style="fill:#6b0000;stroke-width:0.51083046"
       inkscape:connector-curvature="0"
       id="path1198"
       d="m 230.2,237.2 25.201,57.895 3.4498,-10.076 -28.65,-47.82 z" />
    <path
       style="fill:none;stroke:#000000;stroke-width:1.58888698"
       inkscape:connector-curvature="0"
       id="path1200"
       d="m 230.2,237.2 25.201,57.895 3.4498,-10.076 -28.65,-47.82 z" />
    <path
       style="fill:#6b0000;stroke-width:0.51083046"
       inkscape:connector-curvature="0"
       id="path1202"
       d="m 280.58,352.99 -25.188,-57.894 9.7103,4.3301 15.478,53.563 z" />
    <path
       style="fill:none;stroke:#000000;stroke-width:1.58888698"
       inkscape:connector-curvature="0"
       id="path1204"
       d="m 280.58,352.99 -25.188,-57.894 9.7103,4.3301 15.478,53.563 z" />
    <path
       style="fill:#6b0000;stroke-width:0.51083046"
       inkscape:connector-curvature="0"
       id="path1206"
       d="m 197,319.09 58.396,-23.996 -4.5404,9.6155 -53.856,14.381 z" />
    <path
       style="fill:none;stroke:#000000;stroke-width:1.58888698"
       inkscape:connector-curvature="0"
       id="path1208"
       d="m 197,319.09 58.396,-23.996 -4.5404,9.6155 -53.856,14.381 z" />
    <path
       style="fill:#6b0000;stroke-width:0.51083046"
       inkscape:connector-curvature="0"
       id="path1210"
       d="m 280.47,237.15 -25.076,57.945 9.7103,-4.3559 15.366,-53.589 z" />
    <path
       style="fill:none;stroke:#000000;stroke-width:1.58888698"
       inkscape:connector-curvature="0"
       id="path1212"
       d="m 280.47,237.15 -25.076,57.945 9.7103,-4.3559 15.366,-53.589 z" />
    <path
       style="fill:#6b0000;stroke-width:0.51083046"
       inkscape:connector-curvature="0"
       id="path1214"
       d="m 313.46,319.89 -58.066,-24.79 10.033,-3.5136 48.033,28.303 z" />
    <path
       style="fill:none;stroke:#000000;stroke-width:1.58888698"
       inkscape:connector-curvature="0"
       id="path1216"
       d="m 313.46,319.89 -58.066,-24.79 10.033,-3.5136 48.033,28.303 z" />
    <path
       style="fill:#6b0000;stroke-width:0.51083046"
       inkscape:connector-curvature="0"
       id="path1218"
       d="m 229.42,352.64 25.98,-57.546 3.3065,10.097 -29.286,47.449 z" />
    <path
       style="fill:none;stroke:#000000;stroke-width:1.58888698"
       inkscape:connector-curvature="0"
       id="path1220"
       d="m 229.42,352.64 25.98,-57.546 3.3065,10.097 -29.286,47.449 z" />
    <path
       style="fill:#6b0000;stroke-width:0.51083046"
       inkscape:connector-curvature="0"
       id="path1222"
       d="m 197.33,270.29 58.064,24.806 -10.051,3.5139 -48.014,-28.32 z" />
    <path
       style="fill:none;stroke:#000000;stroke-width:1.58888698"
       inkscape:connector-curvature="0"
       id="path1224"
       d="m 197.33,270.29 58.064,24.806 -10.051,3.5139 -48.014,-28.32 z" />
    <path
       style="fill:#e50f07;stroke-width:0.51083046"
       inkscape:connector-curvature="0"
       id="path1226"
       d="m 197.11,319.37 58.285,-24.274 -10.016,-3.6169 -48.269,27.891 z" />
    <path
       style="fill:none;stroke:#000000;stroke-width:1.58888698"
       inkscape:connector-curvature="0"
       id="path1228"
       d="m 197.11,319.37 58.285,-24.274 -10.016,-3.6169 -48.269,27.891 z" />
    <path
       style="fill:#e50f07;stroke-width:0.51083046"
       inkscape:connector-curvature="0"
       id="path1230"
       d="m 280.57,352.98 -25.175,-57.884 -3.4629,10.048 28.638,47.836 z" />
    <path
       style="fill:none;stroke:#000000;stroke-width:1.58888698"
       inkscape:connector-curvature="0"
       id="path1232"
       d="m 280.57,352.98 -25.175,-57.884 -3.4629,10.048 28.638,47.836 z" />
    <path
       style="fill:#e50f07;stroke-width:0.51083046"
       inkscape:connector-curvature="0"
       id="path1234"
       d="m 230.21,237.2 25.19,57.899 -9.7219,-4.3466 -15.468,-53.552 z" />
    <path
       style="fill:none;stroke:#000000;stroke-width:1.58888698"
       inkscape:connector-curvature="0"
       id="path1236"
       d="m 230.21,237.2 25.19,57.899 -9.7219,-4.3466 -15.468,-53.552 z" />
    <path
       style="fill:#e50f07;stroke-width:0.51083046"
       inkscape:connector-curvature="0"
       id="path1238"
       d="m 313.42,270.18 -58.019,24.916 4.3743,-9.6945 53.645,-15.221 z" />
    <path
       style="fill:none;stroke:#000000;stroke-width:1.58888698"
       inkscape:connector-curvature="0"
       id="path1240"
       d="m 313.42,270.18 -58.019,24.916 4.3743,-9.6945 53.645,-15.221 z" />
    <path
       style="fill:#e50f07;stroke-width:0.51083046"
       inkscape:connector-curvature="0"
       id="path1242"
       d="m 197.32,270.31 58.079,24.784 -4.4091,-9.6945 -53.67,-15.09 z" />
    <path
       style="fill:none;stroke:#000000;stroke-width:1.58888698"
       inkscape:connector-curvature="0"
       id="path1244"
       d="m 197.32,270.31 58.079,24.784 -4.4091,-9.6945 -53.67,-15.09 z" />
    <path
       style="fill:#e50f07;stroke-width:0.51083046"
       inkscape:connector-curvature="0"
       id="path1246"
       d="m 229.69,352.76 25.71,-57.667 -9.7551,4.248 -15.955,53.419 z" />
    <path
       style="fill:none;stroke:#000000;stroke-width:1.58888698"
       inkscape:connector-curvature="0"
       id="path1248"
       d="m 229.69,352.76 25.71,-57.667 -9.7551,4.248 -15.955,53.419 z" />
    <path
       style="fill:#e50f07;stroke-width:0.51083046"
       inkscape:connector-curvature="0"
       id="path1250"
       d="m 313.46,319.89 -58.066,-24.79 4.4014,9.6802 53.664,15.11 z" />
    <path
       style="fill:none;stroke:#000000;stroke-width:1.58888698"
       inkscape:connector-curvature="0"
       id="path1252"
       d="m 313.46,319.89 -58.066,-24.79 4.4014,9.6802 53.664,15.11 z" />
    <path
       style="fill:#e50f07;stroke-width:0.51083046"
       inkscape:connector-curvature="0"
       id="path1254"
       d="m 280.47,237.15 -25.076,57.945 -3.4757,-10.066 28.552,-47.879 z" />
    <path
       style="fill:none;stroke:#000000;stroke-width:1.58888698"
       inkscape:connector-curvature="0"
       id="path1256"
       d="m 280.47,237.15 -25.076,57.945 -3.4757,-10.066 28.552,-47.879 z" />
    <path
       style="fill:#6b0000;stroke-width:0.51083046"
       inkscape:connector-curvature="0"
       id="path1258"
       d="m 306.73,245.23 -51.332,49.868 12.04,-0.37139 39.292,-49.496 z" />
    <path
       style="fill:none;stroke:#000000;stroke-width:1.58888698"
       inkscape:connector-curvature="0"
       id="path1260"
       d="m 306.73,245.23 -51.332,49.868 12.04,-0.37139 39.292,-49.496 z" />
    <path
       style="fill:#6b0000;stroke-width:0.51083046"
       inkscape:connector-curvature="0"
       id="path1262"
       d="m 305.48,346.18 -50.087,-51.087 12.027,0.65694 38.06,50.43 z" />
    <path
       style="fill:none;stroke:#000000;stroke-width:1.58888698"
       inkscape:connector-curvature="0"
       id="path1264"
       d="m 305.48,346.18 -50.087,-51.087 12.027,0.65694 38.06,50.43 z" />
    <path
       style="fill:#6b0000;stroke-width:0.51083046"
       inkscape:connector-curvature="0"
       id="path1266"
       d="m 203.29,344.14 52.101,-49.043 -0.89987,12.013 -51.202,37.03 z" />
    <path
       style="fill:none;stroke:#000000;stroke-width:1.58888698"
       inkscape:connector-curvature="0"
       id="path1268"
       d="m 203.29,344.14 52.101,-49.043 -0.89987,12.013 -51.202,37.03 z" />
    <path
       style="fill:#6b0000;stroke-width:0.51083046"
       inkscape:connector-curvature="0"
       id="path1270"
       d="m 205.29,244 50.103,51.099 -12.055,-0.65974 -38.048,-50.44 z" />
    <path
       style="fill:none;stroke:#000000;stroke-width:1.58888698"
       inkscape:connector-curvature="0"
       id="path1272"
       d="m 205.29,244 50.103,51.099 -12.055,-0.65974 -38.048,-50.44 z" />
    <path
       style="fill:#e50f07;stroke-width:0.51083046"
       inkscape:connector-curvature="0"
       id="path1274"
       d="m 205.28,244.01 50.115,51.087 -0.43361,-12.056 -49.681,-39.031 z" />
    <path
       style="fill:none;stroke:#000000;stroke-width:1.58888698"
       inkscape:connector-curvature="0"
       id="path1276"
       d="m 205.28,244.01 50.115,51.087 -0.43361,-12.056 -49.681,-39.031 z" />
    <path
       style="fill:#e50f07;stroke-width:0.51083046"
       inkscape:connector-curvature="0"
       id="path1278"
       d="m 203.52,344.38 51.872,-49.285 -12.058,0.2308 -39.814,49.054 z" />
    <path
       style="fill:none;stroke:#000000;stroke-width:1.58888698"
       inkscape:connector-curvature="0"
       id="path1280"
       d="m 203.52,344.38 51.872,-49.285 -12.058,0.2308 -39.814,49.054 z" />
    <path
       style="fill:#e50f07;stroke-width:0.51083046"
       inkscape:connector-curvature="0"
       id="path1282"
       d="m 305.48,346.18 -50.087,-51.087 0.41245,12.038 49.675,39.049 z" />
    <path
       style="fill:none;stroke:#000000;stroke-width:1.58888698"
       inkscape:connector-curvature="0"
       id="path1284"
       d="m 305.48,346.18 -50.087,-51.087 0.41245,12.038 49.675,39.049 z" />
    <path
       style="fill:#e50f07;stroke-width:0.51083046"
       inkscape:connector-curvature="0"
       id="path1286"
       d="m 306.73,245.23 -51.332,49.868 0.70857,-12.041 50.623,-37.826 z" />
    <path
       style="fill:none;stroke:#000000;stroke-width:1.58888698"
       inkscape:connector-curvature="0"
       id="path1288"
       d="m 306.73,245.23 -51.332,49.868 0.70857,-12.041 50.623,-37.826 z" />
    <path
       style="fill:#e50f07;stroke-width:0.51083046"
       inkscape:connector-curvature="0"
       id="path1290"
       d="m 171.21,295.85 84.187,-0.75492 -9.6217,-9.4733 -74.565,10.228 z" />
    <path
       style="fill:#e50f07;stroke-width:0.51083046"
       inkscape:connector-curvature="0"
       id="path1292"
       d="m 256.01,379.26 -0.61432,-84.164 -9.7424,9.0117 10.357,75.153 z" />
    <path
       style="fill:none;stroke:#000000;stroke-width:1.58888698"
       inkscape:connector-curvature="0"
       id="path1294"
       d="m 256.01,379.26 -0.61432,-84.164 -9.7424,9.0117 10.357,75.153 z" />
    <path
       style="fill:#e50f07;stroke-width:0.51083046"
       inkscape:connector-curvature="0"
       id="path1296"
       d="m 255.05,210.91 0.34557,84.185 -9.6217,-9.5887 9.2761,-74.597 z" />
    <path
       style="fill:none;stroke:#000000;stroke-width:1.58888698"
       inkscape:connector-curvature="0"
       id="path1298"
       d="m 255.05,210.91 0.34557,84.185 -9.6214,-9.5887 9.2758,-74.597 z" />
    <path
       style="fill:#e50f07;stroke-width:0.51083046"
       inkscape:connector-curvature="0"
       id="path1300"
       d="m 339.57,294.36 -84.172,0.73874 9.5334,-9.6718 74.639,8.933 z" />
    <path
       style="fill:none;stroke:#000000;stroke-width:1.58888698"
       inkscape:connector-curvature="0"
       id="path1302"
       d="m 339.57,294.36 -84.172,0.73874 9.5334,-9.6718 74.639,8.933 z" />
    <path
       style="fill:#6b0000;stroke-width:0.51083046"
       inkscape:connector-curvature="0"
       id="path1304"
       d="m 255.05,210.91 0.34557,84.185 9.5334,-9.5887 -9.8789,-74.597 z" />
    <path
       style="fill:none;stroke:#000000;stroke-width:1.58888698"
       inkscape:connector-curvature="0"
       id="path1306"
       d="m 255.05,210.91 0.34557,84.185 9.5334,-9.5887 -9.8789,-74.597 z" />
    <path
       style="fill:#6b0000;stroke-width:0.51083046"
       inkscape:connector-curvature="0"
       id="path1308"
       d="m 256.02,379.26 -0.6249,-84.164 9.6397,9.4705 -9.0148,74.694 z" />
    <path
       style="fill:none;stroke:#000000;stroke-width:1.58888698"
       inkscape:connector-curvature="0"
       id="path1310"
       d="m 256.02,379.26 -0.6249,-84.164 9.6397,9.4705 -9.0148,74.694 z" />
    <path
       style="fill:#6b0000;stroke-width:0.51083046"
       inkscape:connector-curvature="0"
       id="path1312"
       d="m 171.21,295.83 84.187,-0.73377 -9.7424,9.0117 -74.444,-8.278 z" />
    <path
       style="fill:none;stroke:#000000;stroke-width:1.58888698"
       inkscape:connector-curvature="0"
       id="path1314"
       d="m 171.21,295.83 84.187,-0.73346 -9.7424,9.0117 -74.444,-8.2783 z" />
    <path
       style="fill:none;stroke:#000000;stroke-width:1.58888698"
       inkscape:connector-curvature="0"
       id="path1316"
       d="m 171.21,295.85 84.187,-0.75492 -9.6214,-9.4733 -74.565,10.228 z" />
    <path
       style="fill:#6b0000;stroke-width:0.51083046"
       inkscape:connector-curvature="0"
       id="path1318"
       d="m 339.57,294.34 -84.172,0.75616 9.5063,9.4705 74.666,-10.227 z" />
    <path
       style="fill:none;stroke:#000000;stroke-width:1.58888698"
       inkscape:connector-curvature="0"
       id="path1320"
       d="m 339.57,294.34 -84.172,0.75616 9.5063,9.4705 74.666,-10.227 z" />
  </g>
</svg>
