<svg xmlns="http://www.w3.org/2000/svg" width="20.592" height="20.592" viewBox="0 0 20.592 20.592">
  <g id="Path_11" data-name="Path 11" transform="translate(-590.837 -440.836)" fill="#283796">
    <path d="M 608.739501953125 460.9282531738281 C 608.1547241210938 460.9282531738281 607.60498046875 460.7005004882812 607.19140625 460.2869262695312 L 601.4862060546875 454.5820617675781 L 601.1326904296875 454.2285461425781 L 600.7791748046875 454.5820922851562 L 595.0742797851562 460.2869262695312 C 594.6607055664062 460.7005004882812 594.1109008789062 460.9282531738281 593.5260620117188 460.9282531738281 C 592.9412231445312 460.9282531738281 592.3914184570312 460.7005004882812 591.9779663085938 460.2869567871094 C 591.1244506835938 459.4332580566406 591.1244506835938 458.0443115234375 591.9779663085938 457.1907348632812 L 597.6830444335938 451.4856567382812 L 598.0365600585938 451.1321105957031 L 597.6830444335938 450.778564453125 L 591.9779663085938 445.073486328125 C 591.1244506835938 444.2197875976562 591.1244506835938 442.8307800292969 591.9779663085938 441.9772338867188 C 592.3914184570312 441.563720703125 592.9412841796875 441.3360290527344 593.5261840820312 441.3360290527344 C 594.1110229492188 441.3360290527344 594.6608276367188 441.563720703125 595.0742797851562 441.9772033691406 L 600.7791137695312 447.6822509765625 L 601.1326904296875 448.0358276367188 L 601.4862670898438 447.6822509765625 L 607.19140625 441.9772338867188 C 607.6049194335938 441.5637512207031 608.1547241210938 441.3360290527344 608.739501953125 441.3360290527344 C 609.3242797851562 441.3360290527344 609.8740234375 441.5637512207031 610.28759765625 441.9772338867188 C 610.701171875 442.3907470703125 610.928955078125 442.9404907226562 610.928955078125 443.5252990722656 C 610.928955078125 444.1100769042969 610.701171875 444.659912109375 610.28759765625 445.073486328125 L 604.58251953125 450.778564453125 L 604.22900390625 451.1321105957031 L 604.58251953125 451.4856567382812 L 610.2875366210938 457.1907348632812 C 610.701171875 457.604248046875 610.928955078125 458.1540222167969 610.928955078125 458.73876953125 C 610.928955078125 459.3235778808594 610.701171875 459.8733825683594 610.28759765625 460.2868957519531 C 609.8741455078125 460.7005310058594 609.3244018554688 460.9282531738281 608.739501953125 460.9282531738281 Z" stroke="none"/>
    <path d="M 608.739501953125 460.4282531738281 C 609.1907958984375 460.4282531738281 609.614990234375 460.2525634765625 609.9340209960938 459.9333190917969 C 610.253173828125 459.6142578125 610.428955078125 459.1900024414062 610.428955078125 458.73876953125 C 610.428955078125 458.28759765625 610.253173828125 457.8634033203125 609.9340209960938 457.5442810058594 L 603.5219116210938 451.1321105957031 L 609.9340209960938 444.7199096679688 C 610.253173828125 444.4007873535156 610.428955078125 443.9765319824219 610.428955078125 443.5252990722656 C 610.428955078125 443.0740966796875 610.253173828125 442.64990234375 609.9340209960938 442.330810546875 C 609.6149291992188 442.0117492675781 609.1907348632812 441.8360290527344 608.739501953125 441.8360290527344 C 608.2882690429688 441.8360290527344 607.864013671875 442.0117492675781 607.544921875 442.3307800292969 L 601.1326904296875 448.742919921875 L 594.720703125 442.3307495117188 C 594.4017333984375 442.01171875 593.9774780273438 441.8360290527344 593.5261840820312 441.8360290527344 C 593.0748291015625 441.8360290527344 592.6505737304688 442.0117492675781 592.33154296875 442.3307800292969 C 591.6729125976562 442.9894104003906 591.6729736328125 444.0612182617188 592.3314819335938 444.7199096679688 L 598.74365234375 451.1321105957031 L 592.33154296875 457.5442504882812 C 591.6729125976562 458.2029113769531 591.6729125976562 459.2746887207031 592.3316040039062 459.9334411621094 C 592.6505737304688 460.2525329589844 593.0747680664062 460.4282531738281 593.5260620117188 460.4282531738281 C 593.9773559570312 460.4282531738281 594.401611328125 460.2525024414062 594.7207641601562 459.933349609375 L 601.1326904296875 453.5214538574219 L 607.544921875 459.9333801269531 C 607.8640747070312 460.2525024414062 608.288330078125 460.4282531738281 608.739501953125 460.4282531738281 M 608.739501953125 461.4282531738281 C 608.0510864257812 461.4282531738281 607.363037109375 461.1656799316406 606.8378295898438 460.6404724121094 L 601.1326904296875 454.9356384277344 L 595.4278564453125 460.6404724121094 C 594.3773803710938 461.6909790039062 592.6744995117188 461.6907958984375 591.6243896484375 460.6404724121094 C 590.5742797851562 459.5901794433594 590.5742797851562 457.8873596191406 591.6243896484375 456.8371887207031 L 597.3294677734375 451.1321105957031 L 591.6243896484375 445.4270324707031 C 590.5742797851562 444.3766784667969 590.5742797851562 442.6738586425781 591.6243896484375 441.6236877441406 C 592.6746826171875 440.5735473632812 594.377685546875 440.5734252929688 595.4278564453125 441.6236877441406 L 601.1326904296875 447.3287048339844 L 606.8378295898438 441.6236877441406 C 607.8882446289062 440.5734558105469 609.5908203125 440.5734558105469 610.64111328125 441.6236877441406 C 611.6915283203125 442.6738586425781 611.6915283203125 444.3766784667969 610.64111328125 445.4270324707031 L 604.9360961914062 451.1321105957031 L 610.64111328125 456.8371887207031 C 611.6915283203125 457.8873596191406 611.6915283203125 459.5901794433594 610.64111328125 460.6404724121094 C 610.1161499023438 461.1656799316406 609.427734375 461.4282531738281 608.739501953125 461.4282531738281 Z" stroke="none" fill="#fff"/>
  </g>
</svg>
