<svg xmlns="http://www.w3.org/2000/svg" width="58.437" height="40.184" viewBox="0 0 58.437 40.184">
  <g id="Group_4" data-name="Group 4" transform="translate(-484.369 -121.5)">
    <path id="Path_5" data-name="Path 5" d="M498.2,137,491,147.8v9.6h21.591" transform="translate(0.997 2.793)" fill="none" stroke="#283796" stroke-width="3"/>
    <path id="Path_6" data-name="Path 6" d="M523.394,137l7.2,10.8v9.6H509" transform="translate(4.588 2.793)" fill="none" stroke="#283796" stroke-width="3"/>
    <ellipse id="Ellipse_1" data-name="Ellipse 1" cx="7.468" cy="6.721" rx="7.468" ry="6.721" transform="translate(506.162 138.528)" fill="none" stroke="#283796" stroke-width="3"/>
    <path id="Path_7" data-name="Path 7" d="M513.588,123c-15.593,0-24.689,5.8-27.588,8.4a28.446,28.446,0,0,0,3.6,9.6,35.293,35.293,0,0,0,11.995-2.4v-6c1.3-.75,5.273-2.4,11.995-2.4s10.7,1.649,11.995,2.4v6a35.293,35.293,0,0,0,11.995,2.4,28.447,28.447,0,0,0,3.6-9.6C538.277,128.8,529.181,123,513.588,123Z" transform="translate(0 0)" fill="none" stroke="#283796" stroke-width="3"/>
  </g>
</svg>
